<?xml version="1.0" standalone="no"?>
<!DOCTYPE svg PUBLIC "-//W3C//DTD SVG 20010904//EN"
 "http://www.w3.org/TR/2001/REC-SVG-20010904/DTD/svg10.dtd">
<svg version="1.0" xmlns="http://www.w3.org/2000/svg"
 width="512.000000pt" height="512.000000pt" viewBox="0 0 512.000000 512.000000"
 preserveAspectRatio="xMidYMid meet">
<metadata>
Created by potrace 1.14, written by Peter Selinger 2001-2017
</metadata>
<g transform="translate(0.000000,512.000000) scale(0.100000,-0.100000)"
fill="#000000" stroke="none">
<path d="M2560 4069 c-221 -25 -431 -91 -660 -206 -91 -45 -166 -83 -167 -83
-1 0 -25 43 -54 95 -29 52 -56 92 -60 88 -11 -11 -289 -639 -289 -652 0 -6 6
-11 13 -11 6 0 162 -16 346 -35 184 -19 336 -33 339 -31 2 3 -17 44 -43 92
l-48 88 29 22 c46 37 232 130 327 163 155 54 273 74 447 75 180 1 238 -11 370
-76 150 -73 272 -223 309 -382 16 -67 15 -219 -3 -304 -73 -350 -384 -614
-831 -707 -44 -9 -120 -19 -168 -22 l-88 -6 11 29 c7 16 78 223 160 459 81
237 155 449 164 473 l15 42 -212 0 -212 0 -64 -178 c-220 -615 -701 -2015
-701 -2042 0 -7 68 -10 222 -8 l221 3 135 411 135 411 121 7 c66 4 154 11 194
17 41 6 75 9 77 7 1 -2 87 -192 190 -423 103 -231 190 -423 194 -428 4 -4 113
-4 242 0 l236 8 -234 474 c-128 260 -233 475 -233 477 0 2 6 4 14 4 34 0 316
151 386 207 207 165 367 411 445 683 36 127 46 345 21 469 -86 426 -411 716
-878 785 -112 17 -294 19 -418 5z"/>
</g>
</svg>
