<svg aria-hidden="true" style="position: absolute; width: 0; height: 0; overflow: hidden;" version="1.1" xmlns="http://www.w3.org/2000/svg" xmlns:xlink="http://www.w3.org/1999/xlink">
  <defs>
    <symbol id="icon-chevron-right" viewBox="0 0 32 32">
      <path d="M11.229 7.229c0.426-0.426 1.117-0.426 1.543 0l8 8c0.426 0.426 0.426 1.117 0 1.543l-8 8c-0.426 0.426-1.117 0.426-1.543 0s-0.426-1.117 0-1.543l7.229-7.229-7.229-7.229c-0.426-0.426-0.426-1.117 0-1.543z"></path>
    </symbol>
    <symbol id="icon-minus" viewBox="0 0 32 32">
      <path d="M27.145 14.813h-22.29c-0.136 0-0.248 0.113-0.248 0.25v1.875c0 0.137 0.111 0.25 0.248 0.25h22.29c0.136 0 0.248-0.113 0.248-0.25v-1.875c0-0.137-0.112-0.25-0.248-0.25z"></path>
    </symbol>
    <symbol id="icon-plus" viewBox="0 0 32 32">
      <path d="M15.071 4.75h1.858c0.165 0 0.248 0.083 0.248 0.25v22c0 0.167-0.083 0.25-0.248 0.25h-1.858c-0.165 0-0.248-0.083-0.248-0.25v-22c0-0.167 0.083-0.25 0.248-0.25z"></path>
      <path d="M5.598 14.812h20.804c0.165 0 0.248 0.083 0.248 0.25v1.875c0 0.167-0.082 0.25-0.248 0.25h-20.804c-0.165 0-0.248-0.083-0.248-0.25v-1.875c0-0.167 0.083-0.25 0.248-0.25z"></path>
    </symbol>
    <symbol id="icon-arrow-right" viewBox="0 0 32 32">
      <path d="M26.104 15.229c0.426 0.426 0.426 1.117 0 1.543l-8 8c-0.426 0.426-1.117 0.426-1.543 0s-0.426-1.117 0-1.543l6.138-6.138h-16.033c-0.603 0-1.091-0.488-1.091-1.091s0.488-1.091 1.091-1.091h16.033l-6.138-6.138c-0.426-0.426-0.426-1.117 0-1.543s1.117-0.426 1.543 0l8 8z"></path>
    </symbol>
  </defs>
</svg>
