<svg aria-hidden="true" style="position: absolute; width: 0; height: 0; overflow: hidden;" version="1.1" xmlns="http://www.w3.org/2000/svg" xmlns:xlink="http://www.w3.org/1999/xlink">
  <defs>


<symbol id="icon-headphones" viewBox="0 0 32 32">
<path stroke-linejoin="round" stroke-linecap="round" stroke-miterlimit="4" stroke-width="2.1818" d="M20.708 19.702h-1.084c-0.297 0-0.569 0.168-0.701 0.433l-1.001 2.003c-0.144 0.289-0.557 0.289-0.701 0l-2.449-4.9c-0.143-0.284-0.545-0.291-0.696-0.011l-1.115 2.063c-0.137 0.253-0.403 0.412-0.691 0.412h-0.977"></path>
<path stroke-linejoin="round" stroke-linecap="round" stroke-miterlimit="4" stroke-width="2.1818" d="M20.708 19.702h-1.084c-0.297 0-0.569 0.168-0.701 0.433l-1.001 2.003c-0.144 0.289-0.557 0.289-0.701 0l-2.449-4.9c-0.143-0.284-0.545-0.291-0.696-0.011l-1.115 2.063c-0.137 0.253-0.403 0.412-0.691 0.412h-0.977"></path>
<path stroke-linejoin="round" stroke-linecap="round" stroke-miterlimit="4" stroke-width="2.1818" d="M6.559 16.667h-1.224c-1.709 0-2.977 1.587-2.601 3.253l0.903 4c0.275 1.216 1.355 2.080 2.601 2.080h1.595c0.428 0 0.744-0.396 0.651-0.813l-1.723-7.628c-1.337-5.924 3.167-11.559 9.24-11.559v0 0c6.073 0 10.577 5.635 9.24 11.559l-1.721 7.628c-0.095 0.417 0.223 0.813 0.649 0.813h1.595c1.247 0 2.327-0.864 2.601-2.080l0.903-4c0.376-1.667-0.892-3.253-2.601-3.253h-1.224"></path>
<path stroke-linejoin="round" stroke-linecap="round" stroke-miterlimit="4" stroke-width="2.1818" d="M6.559 16.667h-1.224c-1.709 0-2.977 1.587-2.601 3.253l0.903 4c0.275 1.216 1.355 2.080 2.601 2.080h1.595c0.428 0 0.744-0.396 0.651-0.813l-1.723-7.628c-1.337-5.924 3.167-11.559 9.24-11.559v0 0c6.073 0 10.577 5.635 9.24 11.559l-1.721 7.628c-0.095 0.417 0.223 0.813 0.649 0.813h1.595c1.247 0 2.327-0.864 2.601-2.080l0.903-4c0.376-1.667-0.892-3.253-2.601-3.253h-1.224"></path>
</symbol>
<symbol id="icon-star-outline" viewBox="0 0 32 32">
<path stroke-linejoin="miter" stroke-linecap="butt" stroke-miterlimit="4" stroke-width="1.6842" d="M15.199 2.387c0.252-0.776 1.35-0.776 1.602 0l2.558 7.872c0.338 1.041 1.308 1.746 2.403 1.746h8.277c0.816 0 1.155 1.044 0.495 1.523l-6.696 4.865c-0.885 0.643-1.256 1.784-0.918 2.825l2.558 7.872c0.252 0.776-0.636 1.421-1.296 0.941l-6.696-4.865c-0.886-0.643-2.084-0.643-2.97 0l-6.696 4.865c-0.66 0.48-1.548-0.166-1.296-0.941l2.558-7.872c0.338-1.041-0.032-2.181-0.918-2.825l-6.696-4.865c-0.66-0.479-0.321-1.523 0.495-1.523h8.277c1.094 0 2.064-0.705 2.403-1.746l2.558-7.872z"></path>
</symbol>
<symbol id="icon-headphones1" viewBox="0 0 32 32">
<path stroke-linejoin="round" stroke-linecap="round" stroke-miterlimit="4" stroke-width="2.1818" d="M20.708 19.702h-1.084c-0.297 0-0.569 0.168-0.701 0.433l-1.001 2.003c-0.144 0.289-0.557 0.289-0.701 0l-2.449-4.9c-0.143-0.284-0.545-0.291-0.696-0.011l-1.115 2.063c-0.137 0.253-0.403 0.412-0.691 0.412h-0.977"></path>
<path stroke-linejoin="round" stroke-linecap="round" stroke-miterlimit="4" stroke-width="2.1818" d="M20.708 19.702h-1.084c-0.297 0-0.569 0.168-0.701 0.433l-1.001 2.003c-0.144 0.289-0.557 0.289-0.701 0l-2.449-4.9c-0.143-0.284-0.545-0.291-0.696-0.011l-1.115 2.063c-0.137 0.253-0.403 0.412-0.691 0.412h-0.977"></path>
<path stroke-linejoin="round" stroke-linecap="round" stroke-miterlimit="4" stroke-width="2.1818" d="M6.559 16.667h-1.224c-1.709 0-2.977 1.587-2.601 3.253l0.903 4c0.275 1.216 1.355 2.080 2.601 2.080h1.595c0.428 0 0.744-0.396 0.651-0.813l-1.723-7.628c-1.337-5.924 3.167-11.559 9.24-11.559v0 0c6.073 0 10.577 5.635 9.24 11.559l-1.721 7.628c-0.095 0.417 0.223 0.813 0.649 0.813h1.595c1.247 0 2.327-0.864 2.601-2.080l0.903-4c0.376-1.667-0.892-3.253-2.601-3.253h-1.224"></path>
<path stroke-linejoin="round" stroke-linecap="round" stroke-miterlimit="4" stroke-width="2.1818" d="M6.559 16.667h-1.224c-1.709 0-2.977 1.587-2.601 3.253l0.903 4c0.275 1.216 1.355 2.080 2.601 2.080h1.595c0.428 0 0.744-0.396 0.651-0.813l-1.723-7.628c-1.337-5.924 3.167-11.559 9.24-11.559v0 0c6.073 0 10.577 5.635 9.24 11.559l-1.721 7.628c-0.095 0.417 0.223 0.813 0.649 0.813h1.595c1.247 0 2.327-0.864 2.601-2.080l0.903-4c0.376-1.667-0.892-3.253-2.601-3.253h-1.224"></path>
</symbol>
<symbol id="icon-add-team" viewBox="0 0 32 32">
<path d="M21.181 20.075c0.756-0.406 1.622-0.637 2.544-0.637h0.003c0.094 0 0.138-0.113 0.069-0.175-0.959-0.86-2.054-1.555-3.241-2.056-0.013-0.006-0.025-0.009-0.038-0.016 1.941-1.409 3.203-3.7 3.203-6.284 0-4.281-3.462-7.75-7.734-7.75s-7.731 3.469-7.731 7.75c0 2.584 1.262 4.875 3.206 6.284-0.012 0.006-0.025 0.009-0.037 0.016-1.397 0.591-2.65 1.438-3.728 2.519-1.072 1.070-1.925 2.338-2.513 3.734-0.578 1.367-0.89 2.832-0.919 4.316-0.001 0.033 0.005 0.067 0.017 0.098s0.030 0.059 0.054 0.083c0.023 0.024 0.051 0.043 0.082 0.056s0.064 0.020 0.097 0.020h1.872c0.134 0 0.247-0.109 0.25-0.244 0.063-2.413 1.028-4.672 2.737-6.384 1.766-1.772 4.116-2.747 6.616-2.747 1.772 0 3.472 0.491 4.937 1.409 0.038 0.024 0.081 0.037 0.125 0.039s0.088-0.008 0.128-0.029v0zM15.991 16.281c-1.431 0-2.778-0.559-3.794-1.575-0.5-0.498-0.896-1.091-1.166-1.743s-0.408-1.351-0.406-2.057c0-1.434 0.559-2.784 1.572-3.8s2.359-1.575 3.794-1.575c1.434 0 2.778 0.559 3.794 1.575 0.5 0.498 0.896 1.091 1.166 1.743s0.408 1.351 0.406 2.057c0 1.434-0.559 2.784-1.572 3.8-1.016 1.016-2.363 1.575-3.794 1.575zM27.484 23.719h-2.625v-2.625c0-0.138-0.113-0.25-0.25-0.25h-1.75c-0.138 0-0.25 0.112-0.25 0.25v2.625h-2.625c-0.137 0-0.25 0.112-0.25 0.25v1.75c0 0.137 0.113 0.25 0.25 0.25h2.625v2.625c0 0.137 0.112 0.25 0.25 0.25h1.75c0.137 0 0.25-0.113 0.25-0.25v-2.625h2.625c0.137 0 0.25-0.113 0.25-0.25v-1.75c0-0.138-0.113-0.25-0.25-0.25z"></path>
</symbol>
<symbol id="icon-copy-template" viewBox="0 0 32 32">
<path stroke-linejoin="round" stroke-linecap="round" stroke-miterlimit="4" stroke-width="3.4286" d="M20.574 27.281v-13.014c0-0.648-0.258-1.268-0.715-1.726l-3.448-3.448c-0.457-0.457-1.078-0.715-1.726-0.715h-8.441c-1.348 0-2.439 1.091-2.439 2.439v16.464c0 1.348 1.092 2.439 2.439 2.439h11.891c1.348 0 2.439-1.092 2.439-2.439z"></path>
<path stroke-linejoin="round" stroke-linecap="round" stroke-miterlimit="4" stroke-width="3.4286" d="M20.573 23.622h5.183c1.348 0 2.439-1.092 2.439-2.439v-13.014c0-0.648-0.258-1.268-0.715-1.726l-3.448-3.448c-0.457-0.457-1.078-0.715-1.726-0.715h-8.441c-1.348 0-2.439 1.091-2.439 2.439v3.659"></path>
<path stroke-linejoin="round" stroke-linecap="round" stroke-miterlimit="4" stroke-width="3.4286" d="M28.193 8.377h-4.878c-0.674 0-1.22-0.546-1.22-1.22v-4.878"></path>
<path stroke-linejoin="round" stroke-linecap="round" stroke-miterlimit="4" stroke-width="3.4286" d="M20.573 14.476h-4.878c-0.674 0-1.22-0.546-1.22-1.22v-4.878"></path>
</symbol>
<symbol id="icon-question" viewBox="0 0 32 32">
<path d="M16 5.333c-5.891 0-10.667 4.776-10.667 10.667s4.776 10.667 10.667 10.667c5.891 0 10.667-4.776 10.667-10.667s-4.776-10.667-10.667-10.667zM2.667 16c0-7.364 5.97-13.333 13.333-13.333s13.333 5.97 13.333 13.333c0 7.364-5.97 13.333-13.333 13.333s-13.333-5.97-13.333-13.333zM17.333 21.333c0 0.736-0.597 1.333-1.333 1.333s-1.333-0.597-1.333-1.333c0-0.736 0.597-1.333 1.333-1.333s1.333 0.597 1.333 1.333zM14.667 13.333c0-0.736 0.597-1.333 1.333-1.333s1.333 0.597 1.333 1.333v0.162c0 0.396-0.157 0.777-0.438 1.057l-1.838 1.838c-0.521 0.521-0.521 1.365 0 1.886s1.365 0.521 1.886 0l1.838-1.838c0.781-0.78 1.219-1.839 1.219-2.943v-0.162c0-2.209-1.791-4-4-4s-4 1.791-4 4v0.667c0 0.736 0.597 1.333 1.333 1.333s1.333-0.597 1.333-1.333v-0.667z"></path>
</symbol>
<symbol id="icon-eye" viewBox="0 0 32 32">
<path d="M29.444 15.194c-2.963-6.241-7.441-9.381-13.444-9.381-6.006 0-10.481 3.141-13.444 9.384-0.119 0.252-0.18 0.526-0.18 0.805s0.062 0.553 0.18 0.805c2.963 6.241 7.441 9.381 13.444 9.381 6.006 0 10.481-3.141 13.444-9.384 0.241-0.506 0.241-1.094 0-1.609v0zM16 23.938c-5.041 0-8.731-2.556-11.334-7.938 2.603-5.381 6.294-7.938 11.334-7.938s8.731 2.556 11.334 7.938c-2.6 5.381-6.291 7.938-11.334 7.938zM15.875 10.5c-3.037 0-5.5 2.463-5.5 5.5s2.463 5.5 5.5 5.5c3.038 0 5.5-2.462 5.5-5.5s-2.462-5.5-5.5-5.5zM15.875 19.5c-1.934 0-3.5-1.566-3.5-3.5s1.566-3.5 3.5-3.5c1.934 0 3.5 1.566 3.5 3.5s-1.566 3.5-3.5 3.5z"></path>
</symbol>
<symbol id="icon-rewind" viewBox="0 0 32 32">
<path stroke-linejoin="round" stroke-linecap="round" stroke-miterlimit="4" stroke-width="2" d="M10.99 20.759h3.573"></path>
<path stroke-linejoin="round" stroke-linecap="round" stroke-miterlimit="4" stroke-width="2" d="M12.778 20.759v-6.667l-1.947 1.76"></path>
<path stroke-linejoin="round" stroke-linecap="round" stroke-miterlimit="4" stroke-width="2" d="M15.999 8.893l-2.843-2.843 2.843-2.844"></path>
<path stroke-linejoin="round" stroke-linecap="round" stroke-miterlimit="4" stroke-width="2" d="M16 8.892l-2.533-2.533"></path>
<path stroke-linejoin="round" stroke-linecap="round" stroke-miterlimit="4" stroke-width="2" d="M13.469 6.363c0.816-0.187 1.657-0.305 2.531-0.305 6.279 0 11.368 5.089 11.368 11.368s-5.089 11.368-11.368 11.368c-6.279 0-11.368-5.089-11.368-11.368 0-2.559 0.876-4.895 2.301-6.793"></path>
<path stroke-linejoin="round" stroke-linecap="round" stroke-miterlimit="4" stroke-width="2" d="M17.43 19.84c0.361 0.551 0.967 0.919 1.677 0.919 1.139 0 2.061-0.923 2.061-2.060 0-0.92-0.747-1.667-1.667-1.667h-1.833l0.333-2.94h2.881"></path>
</symbol>
<symbol id="icon-fast-forward" viewBox="0 0 32 32">
<path stroke-linejoin="round" stroke-linecap="round" stroke-miterlimit="4" stroke-width="2" d="M10.99 20.759h3.573"></path>
<path stroke-linejoin="round" stroke-linecap="round" stroke-miterlimit="4" stroke-width="2" d="M12.778 20.759v-6.667l-1.947 1.76"></path>
<path stroke-linejoin="round" stroke-linecap="round" stroke-miterlimit="4" stroke-width="2" d="M16 8.893l2.843-2.843-2.843-2.844"></path>
<path stroke-linejoin="round" stroke-linecap="round" stroke-miterlimit="4" stroke-width="2" d="M16 8.892l2.533-2.533"></path>
<path stroke-linejoin="round" stroke-linecap="round" stroke-miterlimit="4" stroke-width="2" d="M18.531 6.363c-0.816-0.187-1.657-0.305-2.531-0.305-6.279 0-11.368 5.089-11.368 11.368s5.089 11.368 11.368 11.368c6.279 0 11.368-5.089 11.368-11.368 0-2.559-0.876-4.895-2.301-6.793"></path>
<path stroke-linejoin="round" stroke-linecap="round" stroke-miterlimit="4" stroke-width="2" d="M17.43 19.84c0.361 0.551 0.967 0.919 1.677 0.919 1.139 0 2.061-0.923 2.061-2.060 0-0.92-0.747-1.667-1.667-1.667h-1.833l0.333-2.94h2.881"></path>
</symbol>
<symbol id="icon-pause" viewBox="0 0 32 32">
<path stroke-linejoin="round" stroke-linecap="round" stroke-miterlimit="4" stroke-width="2" d="M21.333 24c-1.104 0-2-0.896-2-2v-12c0-1.104 0.896-2 2-2s2 0.896 2 2v12c0 1.104-0.896 2-2 2z"></path>
<path stroke-linejoin="round" stroke-linecap="round" stroke-miterlimit="4" stroke-width="2" d="M10.667 24c-1.104 0-2-0.896-2-2v-12c0-1.104 0.896-2 2-2s2 0.896 2 2v12c0 1.104-0.896 2-2 2z"></path>
</symbol>
<symbol id="icon-volume-full" viewBox="0 0 32 32">
<path stroke-linejoin="round" stroke-linecap="round" stroke-miterlimit="4" stroke-width="2" d="M7.833 11.499h-3.167c-0.736 0-1.333 0.597-1.333 1.333v6.333c0 0.736 0.597 1.333 1.333 1.333h3.167l5.305 4.495c0.867 0.735 2.195 0.119 2.195-1.017v-15.955c0-1.136-1.329-1.752-2.195-1.017l-5.305 4.495z"></path>
<path stroke-linejoin="round" stroke-linecap="round" stroke-miterlimit="4" stroke-width="2" d="M20.716 21.303c1.549-0.963 2.617-2.965 2.617-5.297s-1.068-4.336-2.617-5.311"></path>
<path stroke-linejoin="round" stroke-linecap="round" stroke-miterlimit="4" stroke-width="2" d="M24.673 25.419c2.411-2.073 3.993-5.513 3.993-9.416 0-3.908-1.585-7.351-4-9.423"></path>
</symbol>
<symbol id="icon-pencil" viewBox="0 0 32 32">
<path stroke-linejoin="round" stroke-linecap="round" stroke-miterlimit="4" stroke-width="3" d="M7.057 20.825l13.768-13.768c0.52-0.52 1.364-0.52 1.884 0l2.235 2.235c0.52 0.52 0.52 1.364 0 1.884l-13.769 13.767c-0.249 0.251-0.588 0.391-0.941 0.391h-3.567v-3.567c0-0.353 0.14-0.692 0.391-0.941z"></path>
<path stroke-linejoin="round" stroke-linecap="round" stroke-miterlimit="4" stroke-width="3" d="M7.057 20.825l13.768-13.768c0.52-0.52 1.364-0.52 1.884 0l2.235 2.235c0.52 0.52 0.52 1.364 0 1.884l-13.769 13.767c-0.249 0.251-0.588 0.391-0.941 0.391h-3.567v-3.567c0-0.353 0.14-0.692 0.391-0.941z"></path>
<path stroke-linejoin="round" stroke-linecap="round" stroke-miterlimit="4" stroke-width="3" d="M18.334 9.546l4.12 4.12"></path>
<path stroke-linejoin="round" stroke-linecap="round" stroke-miterlimit="4" stroke-width="3" d="M18.334 9.546l4.12 4.12"></path>
</symbol>
<symbol id="icon-edit" viewBox="0 0 32 32">
<path d="M26.192 5.808c-0.519-0.519-1.36-0.519-1.879 0l-0.258 0.258c0.072 1 0.879 1.806 1.879 1.879l0.258-0.258c0.519-0.519 0.519-1.36 0-1.879zM23.589 10.289c-0.78-0.448-1.431-1.098-1.879-1.879l-1.597 1.597c-1.614 1.614-2.215 2.232-2.627 2.96-0.311 0.55-0.514 1.159-0.832 2.377 1.218-0.319 1.828-0.521 2.377-0.832 0.728-0.412 1.347-1.013 2.96-2.627l1.597-1.597zM22.192 3.687c1.69-1.69 4.431-1.69 6.121 0s1.69 4.431 0 6.121l-4.347 4.347c-1.416 1.417-2.331 2.332-3.457 2.969s-2.381 0.951-4.324 1.436h-0l-1.236 0.309c-0.511 0.128-1.052-0.022-1.424-0.395s-0.522-0.913-0.395-1.424l0.309-1.236c0.485-1.943 0.799-3.199 1.436-4.324s1.552-2.041 2.969-3.457l4.347-4.347zM15.864 2.581h0.055v3c-1.884 0-3.222 0.001-4.275 0.073-1.039 0.071-1.69 0.206-2.212 0.422-1.593 0.66-2.858 1.925-3.518 3.518-0.216 0.522-0.351 1.173-0.422 2.212-0.072 1.053-0.073 2.391-0.073 4.275s0.001 3.222 0.073 4.275c0.071 1.039 0.206 1.69 0.422 2.212 0.66 1.593 1.925 2.858 3.518 3.518 0.522 0.216 1.173 0.351 2.212 0.422 1.053 0.072 2.391 0.073 4.275 0.073s3.222-0.001 4.275-0.073c1.039-0.071 1.69-0.206 2.212-0.422 1.593-0.66 2.858-1.925 3.518-3.518 0.216-0.522 0.351-1.173 0.422-2.212 0.072-1.053 0.073-2.391 0.073-4.275h3v0.055c0 1.817 0 3.258-0.080 4.424-0.081 1.192-0.251 2.208-0.644 3.156-0.964 2.328-2.814 4.177-5.141 5.141-0.948 0.393-1.964 0.562-3.156 0.643-1.167 0.080-2.607 0.080-4.425 0.080h-0.11c-1.817 0-3.258 0-4.424-0.080-1.192-0.081-2.208-0.251-3.156-0.643-2.328-0.964-4.177-2.814-5.141-5.141-0.393-0.948-0.562-1.964-0.644-3.156-0.080-1.167-0.080-2.607-0.080-4.425v-0.11c0-1.817-0-3.258 0.080-4.425 0.081-1.192 0.251-2.208 0.644-3.156 0.964-2.328 2.814-4.177 5.141-5.141 0.948-0.393 1.964-0.562 3.156-0.644 1.167-0.080 2.607-0.080 4.425-0.080z"></path>
<path d="M26.192 5.808c-0.519-0.519-1.36-0.519-1.879 0l-0.258 0.258c0.072 1 0.879 1.806 1.879 1.879l0.258-0.258c0.519-0.519 0.519-1.36 0-1.879zM23.589 10.289c-0.78-0.448-1.431-1.098-1.879-1.879l-1.597 1.597c-1.614 1.614-2.215 2.232-2.627 2.96-0.311 0.55-0.514 1.159-0.832 2.377 1.218-0.319 1.828-0.521 2.377-0.832 0.728-0.412 1.347-1.013 2.96-2.627l1.597-1.597zM22.192 3.687c1.69-1.69 4.431-1.69 6.121 0s1.69 4.431 0 6.121l-4.347 4.347c-1.416 1.417-2.331 2.332-3.457 2.969s-2.381 0.951-4.324 1.436h-0l-1.236 0.309c-0.511 0.128-1.052-0.022-1.424-0.395s-0.522-0.913-0.395-1.424l0.309-1.236c0.485-1.943 0.799-3.199 1.436-4.324s1.552-2.041 2.969-3.457l4.347-4.347zM15.864 2.581h0.055v3c-1.884 0-3.222 0.001-4.275 0.073-1.039 0.071-1.69 0.206-2.212 0.422-1.593 0.66-2.858 1.925-3.518 3.518-0.216 0.522-0.351 1.173-0.422 2.212-0.072 1.053-0.073 2.391-0.073 4.275s0.001 3.222 0.073 4.275c0.071 1.039 0.206 1.69 0.422 2.212 0.66 1.593 1.925 2.858 3.518 3.518 0.522 0.216 1.173 0.351 2.212 0.422 1.053 0.072 2.391 0.073 4.275 0.073s3.222-0.001 4.275-0.073c1.039-0.071 1.69-0.206 2.212-0.422 1.593-0.66 2.858-1.925 3.518-3.518 0.216-0.522 0.351-1.173 0.422-2.212 0.072-1.053 0.073-2.391 0.073-4.275h3v0.055c0 1.817 0 3.258-0.080 4.424-0.081 1.192-0.251 2.208-0.644 3.156-0.964 2.328-2.814 4.177-5.141 5.141-0.948 0.393-1.964 0.562-3.156 0.643-1.167 0.080-2.607 0.080-4.425 0.080h-0.11c-1.817 0-3.258 0-4.424-0.080-1.192-0.081-2.208-0.251-3.156-0.643-2.328-0.964-4.177-2.814-5.141-5.141-0.393-0.948-0.562-1.964-0.644-3.156-0.080-1.167-0.080-2.607-0.080-4.425v-0.11c0-1.817-0-3.258 0.080-4.425 0.081-1.192 0.251-2.208 0.644-3.156 0.964-2.328 2.814-4.177 5.141-5.141 0.948-0.393 1.964-0.562 3.156-0.644 1.167-0.080 2.607-0.080 4.425-0.080z"></path>
</symbol>
<symbol id="icon-add-team1" viewBox="0 0 32 32">
<path d="M21.181 20.075c0.756-0.406 1.622-0.637 2.544-0.637h0.003c0.094 0 0.138-0.113 0.069-0.175-0.959-0.86-2.054-1.555-3.241-2.056-0.013-0.006-0.025-0.009-0.038-0.016 1.941-1.409 3.203-3.7 3.203-6.284 0-4.281-3.462-7.75-7.734-7.75s-7.731 3.469-7.731 7.75c0 2.584 1.262 4.875 3.206 6.284-0.012 0.006-0.025 0.009-0.037 0.016-1.397 0.591-2.65 1.438-3.728 2.519-1.072 1.070-1.925 2.338-2.513 3.734-0.578 1.367-0.89 2.832-0.919 4.316-0.001 0.033 0.005 0.067 0.017 0.098s0.030 0.059 0.054 0.083c0.023 0.024 0.051 0.043 0.082 0.056s0.064 0.020 0.097 0.020h1.872c0.134 0 0.247-0.109 0.25-0.244 0.063-2.413 1.028-4.672 2.737-6.384 1.766-1.772 4.116-2.747 6.616-2.747 1.772 0 3.472 0.491 4.937 1.409 0.038 0.024 0.081 0.037 0.125 0.039s0.088-0.008 0.128-0.029v0zM15.991 16.281c-1.431 0-2.778-0.559-3.794-1.575-0.5-0.498-0.896-1.091-1.166-1.743s-0.408-1.351-0.406-2.057c0-1.434 0.559-2.784 1.572-3.8s2.359-1.575 3.794-1.575c1.434 0 2.778 0.559 3.794 1.575 0.5 0.498 0.896 1.091 1.166 1.743s0.408 1.351 0.406 2.057c0 1.434-0.559 2.784-1.572 3.8-1.016 1.016-2.363 1.575-3.794 1.575zM27.484 23.719h-2.625v-2.625c0-0.138-0.113-0.25-0.25-0.25h-1.75c-0.138 0-0.25 0.112-0.25 0.25v2.625h-2.625c-0.137 0-0.25 0.112-0.25 0.25v1.75c0 0.137 0.113 0.25 0.25 0.25h2.625v2.625c0 0.137 0.112 0.25 0.25 0.25h1.75c0.137 0 0.25-0.113 0.25-0.25v-2.625h2.625c0.137 0 0.25-0.113 0.25-0.25v-1.75c0-0.138-0.113-0.25-0.25-0.25z"></path>
</symbol>
<symbol id="icon-trend-down" viewBox="0 0 32 32">
<path fill="none" stroke="#ff4218" style="stroke: var(--color1, #ff4218)" stroke-linejoin="round" stroke-linecap="round" stroke-miterlimit="4" stroke-width="3" d="M22.6 22.6l-13.2-13.2"></path>
<path fill="none" stroke="#ff4218" style="stroke: var(--color1, #ff4218)" stroke-linejoin="round" stroke-linecap="round" stroke-miterlimit="4" stroke-width="3" d="M22.6 13.169v9.431l-9.429-0.001"></path>
</symbol>
<symbol id="icon-trend-up" viewBox="0 0 32 32">
<path fill="none" stroke="#22dd8f" style="stroke: var(--color2, #22dd8f)" stroke-linejoin="round" stroke-linecap="round" stroke-miterlimit="4" stroke-width="3" d="M22.567 9.433l-13.2 13.2"></path>
<path fill="none" stroke="#22dd8f" style="stroke: var(--color2, #22dd8f)" stroke-linejoin="round" stroke-linecap="round" stroke-miterlimit="4" stroke-width="3" d="M13.3 9.367l9.267 0.065 0.067 9.268"></path>
</symbol>
<symbol id="icon-upload" viewBox="0 0 32 32">
<path d="M12.5 9.929h2.309v10.572c0 0.137 0.113 0.25 0.25 0.25h1.875c0.137 0 0.25-0.113 0.25-0.25v-10.572h2.316c0.209 0 0.325-0.241 0.197-0.403l-3.5-4.431c-0.023-0.030-0.053-0.054-0.087-0.071s-0.072-0.025-0.11-0.025c-0.038 0-0.075 0.009-0.11 0.025s-0.064 0.041-0.087 0.071l-3.5 4.428c-0.128 0.166-0.012 0.406 0.197 0.406v0zM27.438 19.564h-1.875c-0.137 0-0.25 0.113-0.25 0.25v4.813h-18.625v-4.813c0-0.137-0.112-0.25-0.25-0.25h-1.875c-0.138 0-0.25 0.113-0.25 0.25v6.188c0 0.553 0.447 1 1 1h21.375c0.553 0 1-0.447 1-1v-6.188c0-0.137-0.113-0.25-0.25-0.25z"></path>
</symbol>
<symbol id="icon-search" viewBox="0 0 32 32">
<path d="M28.425 26.703l-8.116-8.116c1.259-1.628 1.941-3.619 1.941-5.713 0-2.506-0.978-4.856-2.747-6.628s-4.125-2.747-6.628-2.747-4.859 0.978-6.628 2.747c-1.772 1.769-2.747 4.122-2.747 6.628 0 2.503 0.978 4.859 2.747 6.628 1.769 1.772 4.122 2.747 6.628 2.747 2.094 0 4.081-0.681 5.709-1.938l8.116 8.113c0.024 0.024 0.052 0.043 0.083 0.056s0.064 0.020 0.098 0.020c0.034 0 0.067-0.007 0.098-0.020s0.059-0.032 0.083-0.056l1.363-1.359c0.024-0.024 0.043-0.052 0.056-0.083s0.020-0.064 0.020-0.098-0.007-0.067-0.020-0.098c-0.013-0.031-0.032-0.059-0.056-0.083v0zM17.825 17.825c-1.325 1.322-3.081 2.050-4.95 2.050s-3.625-0.728-4.95-2.050c-1.322-1.325-2.050-3.081-2.050-4.95s0.728-3.628 2.050-4.95c1.325-1.322 3.081-2.050 4.95-2.050s3.628 0.725 4.95 2.050c1.322 1.325 2.050 3.081 2.050 4.95s-0.728 3.628-2.050 4.95z"></path>
</symbol>
<symbol id="icon-caret-down" viewBox="0 0 32 32">
<path d="M25.33 9.978h-18.659c-0.56 0-0.872 0.591-0.526 0.994l9.33 10.818c0.267 0.31 0.781 0.31 1.051 0l9.33-10.818c0.347-0.403 0.034-0.994-0.526-0.994z"></path>
</symbol>
<symbol id="icon-caret-up" viewBox="0 0 32 32">
<path d="M25.855 21.028l-9.33-10.818c-0.267-0.31-0.781-0.31-1.051 0l-9.33 10.818c-0.347 0.403-0.034 0.994 0.526 0.994h18.659c0.56 0 0.872-0.591 0.526-0.994z"></path>
</symbol>
<symbol id="icon-arrow-left" viewBox="0 0 32 32">
<path d="M27.25 14.813h-18.284l10.944-9.5c0.175-0.153 0.069-0.438-0.163-0.438h-2.766c-0.122 0-0.238 0.044-0.328 0.122l-11.809 10.247c-0.108 0.094-0.195 0.21-0.254 0.34s-0.090 0.272-0.090 0.415c0 0.143 0.031 0.285 0.090 0.415s0.146 0.246 0.254 0.34l11.878 10.309c0.047 0.041 0.103 0.063 0.163 0.063h2.859c0.231 0 0.338-0.287 0.163-0.437l-10.941-9.5h18.284c0.138 0 0.25-0.113 0.25-0.25v-1.875c0-0.137-0.112-0.25-0.25-0.25z"></path>
<path d="M27.25 14.813h-18.284l10.944-9.5c0.175-0.153 0.069-0.438-0.163-0.438h-2.766c-0.122 0-0.238 0.044-0.328 0.122l-11.809 10.247c-0.108 0.094-0.195 0.21-0.254 0.34s-0.090 0.272-0.090 0.415c0 0.143 0.031 0.285 0.090 0.415s0.146 0.246 0.254 0.34l11.878 10.309c0.047 0.041 0.103 0.063 0.163 0.063h2.859c0.231 0 0.338-0.287 0.163-0.437l-10.941-9.5h18.284c0.138 0 0.25-0.113 0.25-0.25v-1.875c0-0.137-0.112-0.25-0.25-0.25z"></path>
</symbol>
<symbol id="icon-close" viewBox="0 0 32 32">
<path d="M17.88 15.999l5.733-5.72c0.251-0.251 0.392-0.592 0.392-0.947s-0.141-0.696-0.392-0.947c-0.251-0.251-0.591-0.392-0.947-0.392s-0.696 0.141-0.947 0.392l-5.72 5.733-5.72-5.733c-0.251-0.251-0.592-0.392-0.947-0.392s-0.696 0.141-0.947 0.392c-0.251 0.251-0.392 0.592-0.392 0.947s0.141 0.696 0.392 0.947l5.733 5.72-5.733 5.72c-0.125 0.124-0.224 0.271-0.292 0.434s-0.103 0.337-0.103 0.513c0 0.176 0.035 0.35 0.103 0.513s0.167 0.31 0.292 0.434c0.124 0.125 0.271 0.224 0.434 0.292s0.337 0.103 0.513 0.103c0.176 0 0.35-0.035 0.513-0.103s0.31-0.167 0.434-0.292l5.72-5.733 5.72 5.733c0.124 0.125 0.271 0.224 0.434 0.292s0.337 0.103 0.513 0.103c0.176 0 0.35-0.035 0.513-0.103s0.31-0.167 0.434-0.292c0.125-0.124 0.224-0.271 0.292-0.434s0.103-0.337 0.103-0.513-0.035-0.35-0.103-0.513c-0.068-0.162-0.167-0.31-0.292-0.434l-5.733-5.72z"></path>
</symbol>
<symbol id="icon-mute" viewBox="0 0 32 32">
<path stroke-linejoin="round" stroke-linecap="round" stroke-miterlimit="4" stroke-width="2" d="M8.28 11.501l5.305-4.495c0.867-0.735 2.195-0.119 2.195 1.017v15.953c0 1.136-1.329 1.752-2.195 1.017l-5.305-4.495"></path>
<path stroke-linejoin="round" stroke-linecap="round" stroke-miterlimit="4" stroke-width="2" d="M8.28 20.501h-3.167c-0.736 0-1.333-0.597-1.333-1.333v-6.333c0-0.736 0.597-1.333 1.333-1.333h3.167"></path>
<path stroke-linejoin="round" stroke-linecap="round" stroke-miterlimit="4" stroke-width="2" d="M28.22 12.587l-6.667 6.667"></path>
<path stroke-linejoin="round" stroke-linecap="round" stroke-miterlimit="4" stroke-width="2" d="M28.22 19.254l-6.667-6.667"></path>
</symbol>
<symbol id="icon-chevron-down" viewBox="0 0 32 32">
<path stroke-linejoin="round" stroke-linecap="round" stroke-miterlimit="4" stroke-width="2" d="M10.667 13.333l5.333 5.333 5.333-5.333"></path>
</symbol>
<symbol id="icon-user-search" viewBox="0 0 32 32">
<path stroke-linejoin="round" stroke-linecap="round" stroke-miterlimit="4" stroke-width="2" d="M14.667 20h-5.333c-2.946 0-5.333 2.388-5.333 5.333v1.333"></path>
<path stroke-linejoin="round" stroke-linecap="round" stroke-miterlimit="4" stroke-width="2" d="M14.667 20h-5.333c-2.946 0-5.333 2.388-5.333 5.333v1.333"></path>
<path stroke-linejoin="round" stroke-linecap="round" stroke-miterlimit="4" stroke-width="2" d="M20 9.333c0 2.946-2.388 5.333-5.333 5.333s-5.333-2.388-5.333-5.333c0-2.946 2.388-5.333 5.333-5.333s5.333 2.388 5.333 5.333z"></path>
<path stroke-linejoin="round" stroke-linecap="round" stroke-miterlimit="4" stroke-width="2" d="M20 9.333c0 2.946-2.388 5.333-5.333 5.333s-5.333-2.388-5.333-5.333c0-2.946 2.388-5.333 5.333-5.333s5.333 2.388 5.333 5.333z"></path>
<path stroke-linejoin="round" stroke-linecap="round" stroke-miterlimit="4" stroke-width="2" d="M28 22.074c0 2.618-2.122 4.741-4.741 4.741s-4.741-2.122-4.741-4.741c0-2.618 2.122-4.741 4.741-4.741s4.741 2.122 4.741 4.741z"></path>
<path stroke-linejoin="round" stroke-linecap="round" stroke-miterlimit="4" stroke-width="2" d="M28 22.074c0 2.618-2.122 4.741-4.741 4.741s-4.741-2.122-4.741-4.741c0-2.618 2.122-4.741 4.741-4.741s4.741 2.122 4.741 4.741z"></path>
<path stroke-linejoin="round" stroke-linecap="round" stroke-miterlimit="4" stroke-width="2" d="M19.907 25.426l-2.574 2.574"></path>
<path stroke-linejoin="round" stroke-linecap="round" stroke-miterlimit="4" stroke-width="2" d="M19.907 25.426l-2.574 2.574"></path>
</symbol>
<symbol id="icon-check" viewBox="0 0 32 32">
<path d="M28.288 6.231c0.977 0.896 1.043 2.414 0.147 3.391l-14.667 16c-0.442 0.483-1.063 0.763-1.717 0.778s-1.286-0.24-1.749-0.702l-6.667-6.667c-0.937-0.937-0.937-2.457 0-3.394s2.457-0.937 3.394 0l4.894 4.894 12.973-14.152c0.896-0.977 2.414-1.043 3.391-0.147z"></path>
</symbol>
<symbol id="icon-info" viewBox="0 0 32 32">
<path d="M16 5c-6.075 0-11 4.925-11 11s4.925 11 11 11c6.075 0 11-4.925 11-11s-4.925-11-11-11zM3 16c0-7.18 5.82-13 13-13s13 5.82 13 13c0 7.18-5.82 13-13 13s-13-5.82-13-13zM16 13.667c0.552 0 1 0.448 1 1v6.667c0 0.552-0.448 1-1 1s-1-0.448-1-1v-6.667c0-0.552 0.448-1 1-1zM16 12c0.736 0 1.333-0.597 1.333-1.333s-0.597-1.333-1.333-1.333c-0.736 0-1.333 0.597-1.333 1.333s0.597 1.333 1.333 1.333z"></path>
</symbol>
<symbol id="icon-star" viewBox="0 0 32 32">
<path d="M13.735 2.845c0.713-2.194 3.816-2.194 4.529 0l2.012 6.193c0.319 0.981 1.233 1.645 2.265 1.645h6.511c2.306 0 3.266 2.952 1.4 4.307l-5.268 3.827c-0.835 0.606-1.184 1.681-0.865 2.662l2.012 6.193c0.713 2.194-1.798 4.018-3.664 2.662l-5.268-3.827c-0.835-0.606-1.965-0.606-2.799 0l-5.268 3.827c-1.866 1.356-4.377-0.468-3.664-2.662l2.012-6.193c0.319-0.981-0.030-2.056-0.865-2.662l-5.268-3.827c-1.866-1.356-0.907-4.307 1.4-4.307h6.511c1.032 0 1.946-0.664 2.265-1.645l2.012-6.193z"></path>
</symbol>
<symbol id="icon-caller" viewBox="0 0 32 32">
<path stroke-linejoin="round" stroke-linecap="round" stroke-miterlimit="4" stroke-width="2.2857" d="M24.889 27.429h-17.778c-1.403 0-2.54-1.136-2.54-2.54v-17.778c0-1.403 1.136-2.54 2.54-2.54h17.778c1.403 0 2.54 1.136 2.54 2.54v17.778c0 1.403-1.136 2.54-2.54 2.54z"></path>
<path stroke-linejoin="round" stroke-linecap="round" stroke-miterlimit="4" stroke-width="2.2857" d="M19.143 10.219c1.736 1.736 1.736 4.55 0 6.285s-4.55 1.736-6.285 0c-1.736-1.736-1.736-4.55 0-6.285s4.55-1.736 6.285 0"></path>
<path stroke-linejoin="round" stroke-linecap="round" stroke-miterlimit="4" stroke-width="2.2857" d="M22.874 23.658c-0.225-0.566-0.574-1.074-1.021-1.488v0c-0.756-0.701-1.744-1.091-2.775-1.091-1.719 0-4.437 0-6.156 0-1.031 0-2.019 0.39-2.776 1.091v0c-0.447 0.414-0.795 0.922-1.021 1.488"></path>
</symbol>
<symbol id="icon-scorecard" viewBox="0 0 32 32">
<path stroke-linejoin="round" stroke-linecap="round" stroke-miterlimit="4" stroke-width="2.2857" d="M10.918 6.472l1.652-2.064c0.241-0.301 0.606-0.476 0.992-0.476h4.877c0.386 0 0.751 0.175 0.992 0.476l1.65 2.064v1.27c0 0.701-0.569 1.27-1.27 1.27h-7.622c-0.701 0-1.27-0.569-1.27-1.27v-1.27z"></path>
<path stroke-linejoin="round" stroke-linecap="round" stroke-miterlimit="4" stroke-width="2.2857" d="M10.918 6.472h-2.541c-1.404 0-2.541 1.137-2.541 2.541v16.515c0 1.404 1.137 2.541 2.541 2.541h15.244c1.404 0 2.541-1.137 2.541-2.541v-16.515c0-1.404-1.137-2.541-2.541-2.541h-2.541"></path>
<path stroke-linejoin="round" stroke-linecap="round" stroke-miterlimit="4" stroke-width="2.2857" d="M18.541 17.27l-3.176 3.176-1.906-1.906"></path>
</symbol>
<symbol id="icon-teams" viewBox="0 0 32 32">
<path stroke-linejoin="round" stroke-linecap="round" stroke-miterlimit="4" stroke-width="2.2857" d="M27.165 12.855c1.003 1.003 1.003 2.63 0 3.633s-2.63 1.003-3.633 0c-1.003-1.003-1.003-2.63 0-3.633s2.63-1.003 3.633 0"></path>
<path stroke-linejoin="round" stroke-linecap="round" stroke-miterlimit="4" stroke-width="2.2857" d="M18.797 8.27c1.545 1.545 1.545 4.049 0 5.594s-4.049 1.545-5.594 0-1.545-4.049 0-5.594c1.545-1.545 4.049-1.545 5.594 0"></path>
<path stroke-linejoin="round" stroke-linecap="round" stroke-miterlimit="4" stroke-width="2.2857" d="M8.468 12.855c1.003 1.003 1.003 2.63 0 3.633s-2.63 1.003-3.633 0c-1.003-1.003-1.003-2.63 0-3.633s2.63-1.003 3.633 0"></path>
<path stroke-linejoin="round" stroke-linecap="round" stroke-miterlimit="4" stroke-width="2.2857" d="M29.968 24.889v-1.392c0-1.754-1.421-3.175-3.175-3.175h-1.017"></path>
<path stroke-linejoin="round" stroke-linecap="round" stroke-miterlimit="4" stroke-width="2.2857" d="M2.032 24.889v-1.392c0-1.754 1.421-3.175 3.175-3.175h1.017"></path>
<path stroke-linejoin="round" stroke-linecap="round" stroke-miterlimit="4" stroke-width="2.2857" d="M22.78 24.889v-2.033c0-2.455-1.99-4.445-4.445-4.445h-4.672c-2.455 0-4.444 1.99-4.444 4.444v2.033"></path>
</symbol>
<symbol id="icon-gear" viewBox="0 0 32 32">
<path stroke-linejoin="round" stroke-linecap="round" stroke-miterlimit="4" stroke-width="2.4" d="M18.545 13.454c1.406 1.406 1.406 3.685 0 5.091s-3.685 1.406-5.091 0c-1.406-1.406-1.406-3.685 0-5.091s3.685-1.406 5.091 0"></path>
<path stroke-linejoin="round" stroke-linecap="round" stroke-miterlimit="4" stroke-width="2.4" d="M7 16c0 0.396 0.036 0.792 0.084 1.176l-2.117 1.656c-0.469 0.368-0.597 1.025-0.299 1.541l1.883 3.257c0.297 0.516 0.929 0.733 1.483 0.512l1.896-0.761c0.375-0.151 0.792-0.091 1.128 0.132 0.293 0.195 0.597 0.373 0.912 0.533 0.36 0.183 0.621 0.509 0.679 0.909l0.289 2.017c0.084 0.589 0.589 1.027 1.184 1.027h3.756c0.595 0 1.1-0.437 1.184-1.027l0.289-2.016c0.057-0.4 0.321-0.729 0.683-0.911 0.313-0.157 0.616-0.335 0.908-0.528 0.339-0.224 0.757-0.288 1.133-0.136l1.892 0.76c0.552 0.221 1.184 0.004 1.483-0.512l1.883-3.257c0.299-0.516 0.171-1.175-0.299-1.541l-2.117-1.656c0.048-0.384 0.084-0.78 0.084-1.176s-0.036-0.792-0.084-1.176l2.117-1.656c0.469-0.368 0.597-1.025 0.299-1.541l-1.883-3.257c-0.297-0.516-0.929-0.733-1.483-0.512l-1.892 0.76c-0.376 0.151-0.795 0.088-1.133-0.136-0.292-0.193-0.595-0.371-0.908-0.528-0.361-0.181-0.625-0.511-0.683-0.911l-0.288-2.016c-0.084-0.589-0.589-1.027-1.184-1.027h-3.756c-0.595 0-1.1 0.437-1.184 1.027l-0.291 2.019c-0.057 0.399-0.32 0.727-0.679 0.909-0.315 0.16-0.619 0.34-0.912 0.533-0.337 0.221-0.755 0.281-1.129 0.131l-1.895-0.761c-0.553-0.221-1.185-0.004-1.483 0.512l-1.883 3.257c-0.299 0.516-0.171 1.175 0.299 1.541l2.117 1.656c-0.048 0.384-0.084 0.78-0.084 1.176v0z"></path>
</symbol>
<symbol id="icon-home" viewBox="0 0 32 32">
<path stroke-linejoin="round" stroke-linecap="round" stroke-miterlimit="4" stroke-width="2.4" d="M5.333 11.467v16.533h21.333v-16.533"></path>
<path stroke-linejoin="round" stroke-linecap="round" stroke-miterlimit="4" stroke-width="2.4" d="M2.667 13.333l13.333-9.333 13.333 9.333"></path>
<path stroke-linejoin="round" stroke-linecap="round" stroke-miterlimit="4" stroke-width="2.4" d="M20 28v-8c0-1.473-1.193-2.667-2.667-2.667h-2.667c-1.473 0-2.667 1.193-2.667 2.667v8"></path>
</symbol>
<symbol id="icon-sparkle" viewBox="0 0 32 32">
<path stroke-linejoin="round" stroke-linecap="round" stroke-miterlimit="4" stroke-width="2.6667" d="M5.333 7.815h4.741"></path>
<path stroke-linejoin="round" stroke-linecap="round" stroke-miterlimit="4" stroke-width="2.6667" d="M7.704 5.296v5.037"></path>
<path stroke-linejoin="round" stroke-linecap="round" stroke-miterlimit="4" stroke-width="2.6667" d="M8.889 22.926v3.778"></path>
<path stroke-linejoin="round" stroke-linecap="round" stroke-miterlimit="4" stroke-width="2.6667" d="M10.667 24.815h-3.556"></path>
<path stroke-linejoin="round" stroke-linecap="round" stroke-miterlimit="4" stroke-width="2.6667" d="M26.667 16.63l-4.492-1.919c-0.898-0.384-1.611-1.14-1.972-2.094l-1.819-4.802-1.819 4.802c-0.361 0.955-1.074 1.711-1.972 2.094l-4.492 1.919h-0.026l4.492 1.919c0.898 0.384 1.611 1.14 1.972 2.094l1.819 4.802 1.819-4.802c0.361-0.954 1.074-1.711 1.972-2.094l4.492-1.919"></path>
</symbol>
<symbol id="icon-chevron-right" viewBox="0 0 32 32">
<path d="M19.468 15.655l-6.163-4.814c-0.016-0.013-0.036-0.021-0.056-0.023s-0.041 0.001-0.059 0.010c-0.018 0.009-0.034 0.023-0.045 0.040s-0.017 0.037-0.016 0.058v1.057c0 0.067 0.031 0.131 0.083 0.172l4.922 3.843-4.922 3.843c-0.053 0.041-0.083 0.105-0.083 0.172v1.057c0 0.092 0.105 0.142 0.176 0.086l6.163-4.814c0.052-0.041 0.095-0.093 0.124-0.153s0.044-0.125 0.044-0.192c0-0.066-0.015-0.132-0.044-0.192s-0.072-0.112-0.124-0.153z"></path>
</symbol>
<symbol id="icon-chevron-left" viewBox="0 0 32 32">
<path d="M18.899 11.984v-1.057c0-0.092-0.105-0.142-0.176-0.086l-6.163 4.814c-0.052 0.041-0.095 0.093-0.124 0.152s-0.044 0.125-0.044 0.191 0.015 0.132 0.044 0.191c0.029 0.060 0.072 0.112 0.124 0.152l6.163 4.814c0.072 0.056 0.176 0.006 0.176-0.086v-1.057c0-0.067-0.031-0.131-0.083-0.172l-4.922-3.842 4.922-3.843c0.052-0.041 0.083-0.105 0.083-0.172z"></path>
</symbol>

  </defs>
</svg>
